<svg xmlns="http://www.w3.org/2000/svg" width="207" height="423" fill="none"><g clip-path="url(#a)"><path fill="#fff" d="M.187 125.391h.586v31.18H.187c-.058 0-.175-.181-.175-.301v-30.638c-.059-.12.117-.241.175-.241"/><path fill="#fff" d="M.356 125.391H.94v31.18H.356c-.059 0-.176-.181-.176-.301v-30.638c-.058-.12.117-.241.176-.241" opacity=".58"/><path fill="#fff" d="M.714 156.761h1.112V124.98H.714zM206.742 146.278h-.586V96.8h.586c.059 0 .175.18.175.301v48.936c0 .06-.116.241-.175.241"/><path fill="#fff" d="M206.405 146.278h-.586V96.8h.586c.059 0 .176.18.176.301v48.936c0 .06-.117.241-.176.241"/><path fill="#fff" d="M206.047 96.56h-1.112v50.019h1.112zM.187 84.461h.586v31.179H.187c-.058 0-.175-.18-.175-.301V84.702c0-.12.117-.24.175-.24"/><path fill="#fff" d="M.524 84.461h.586v31.179H.524c-.058 0-.175-.18-.175-.301V84.702c0-.12.117-.24.175-.24" opacity=".58"/><path fill="#fff" d="M.714 115.924h1.112v-31.78H.714zM.487 55.028h.585v16.07H.487c-.058 0-.175-.18-.175-.3v-15.53c0-.12.117-.24.175-.24"/><path fill="#fff" d="M.824 55.028h.585v16.07H.824c-.059 0-.176-.18-.176-.3v-15.53c0-.12.117-.24.176-.24" opacity=".58"/><path fill="#fff" d="M.979 71.278H2.09V54.605H.979z"/><path stroke="#fff" stroke-width="2" d="M180.884.839H26.097C12.981.839 2.348 11.427 2.348 24.488v374.024c0 13.061 10.633 23.649 23.749 23.649h154.787c13.116 0 23.748-10.588 23.748-23.649V24.488c0-13.061-10.632-23.65-23.748-23.65Z"/><mask id="b" width="191" height="409" x="8" y="7" mask-type="alpha" maskUnits="userSpaceOnUse"><path fill="#fff" d="M182.046 7.212h-23.588c-2.046 0-3.37 1.51-3.851 4.23-1.625 9.667-6.92 10.332-8.485 10.332H60.858c-1.564 0-6.92-.725-8.484-10.332-.421-2.72-1.745-4.23-3.851-4.23H24.935c-8.544 0-16.186 9.064-16.186 17.704v374.376c0 10.696 10.83 16.496 16.006 16.496h157.471c5.174 0 16.006-5.8 16.006-16.496V24.916c.06-8.64-7.642-17.704-16.186-17.704"/></mask><g mask="url(#b)"><path fill="#fff" fill-opacity=".06" d="M182.046 7.212h-23.588c-2.046 0-3.37 1.51-3.851 4.23-1.625 9.667-6.92 10.332-8.485 10.332H60.858c-1.564 0-6.92-.725-8.484-10.332-.421-2.72-1.745-4.23-3.851-4.23H24.935c-8.544 0-16.186 9.064-16.186 17.704v374.376c0 10.696 10.83 16.496 16.006 16.496h157.471c5.174 0 16.006-5.8 16.006-16.496V24.916c.06-8.64-7.642-17.704-16.186-17.704"/></g></g><defs><clipPath id="a"><path fill="#fff" d="M0 0h207v423H0z"/></clipPath></defs></svg>